<?xml version="1.0" encoding="utf-8"?>
<!-- Generator: Adobe Illustrator 22.0.0, SVG Export Plug-In . SVG Version: 6.00 Build 0)  -->
<svg version="1.1" id="Laag_1" xmlns="http://www.w3.org/2000/svg" xmlns:xlink="http://www.w3.org/1999/xlink" x="0px" y="0px"
	 viewBox="0 0 364.6 150.4" style="enable-background:new 0 0 364.6 150.4;" xml:space="preserve">
<style type="text/css">
	.st0{fill:#FFFFFF;}
	.st1{fill:#005CB9;}
</style>
<g>
	<path class="st0" d="M20.8,138.8c-0.1,0.3-0.4,1.3-0.9,3s-1,3.3-1.4,4.8c-0.5,1.5-0.7,2.3-0.7,2.4c-0.2,0.7-0.8,1.2-1.6,1.2h-1
		c-0.8,0-1.4-0.4-1.7-1.2l-2.1-7.7c0-0.4-0.5-0.4-0.5,0L8.8,149c-0.3,0.8-0.9,1.2-1.7,1.2H6c-0.8,0-1.4-0.5-1.6-1.2
		c0,0-0.2-0.8-0.7-2.4c-0.5-1.5-0.9-3.2-1.5-4.8c-0.5-1.7-0.8-2.7-0.9-3h2.2c0.1,0.3,0.3,0.8,0.5,1.5c0.2,0.7,0.5,1.5,0.7,2.3
		c0.7,2.4,1.5,5.2,1.6,5.2c0.1,0.2,0.1,0.3,0.2,0.3h0.2c0.1,0,0.1-0.1,0.2-0.3l2.1-7.6c0.2-0.9,0.9-1.4,2.1-1.4
		c1.1,0,1.8,0.4,2.1,1.4c1.2,4.5,1.9,7,2.1,7.6c0.1,0.2,0.1,0.3,0.2,0.3h0.2c0.1,0,0.1-0.1,0.2-0.3c0-0.1,0.4-1.3,0.8-2.8
		c0.2-0.8,0.5-1.6,0.7-2.4c0.2-0.8,0.5-1.6,0.7-2.3s0.4-1.2,0.5-1.5H20.8z"/>
	<path class="st0" d="M29.7,138.6c1.9,0,3.4,0.5,4.2,1.2c0.4,0.4,0.8,0.8,1,1.4c0.5,1.1,0.7,2,0.7,3.3c0,1.2-0.1,2.2-0.7,3.3
		c-0.7,1.5-2.3,2.6-5.3,2.6h-1.5c-1.9,0-3.4-0.5-4.3-1.2c-0.4-0.4-0.7-0.8-1-1.4c-0.5-1.1-0.7-2.1-0.7-3.3s0.1-2.2,0.7-3.3
		c0.7-1.5,2.3-2.6,5.3-2.6H29.7z M29.7,148.4c1.3,0,2.3-0.3,2.8-0.8c0.3-0.2,0.5-0.5,0.6-0.9c0.3-0.8,0.3-1.3,0.3-2.3s0-1.5-0.3-2.3
		c-0.4-1.1-1.4-1.6-3.4-1.7h-1.5c-1.3,0-2.3,0.3-2.8,0.8c-0.2,0.2-0.4,0.5-0.6,0.9c-0.3,0.7-0.3,1.3-0.3,2.3s0,1.5,0.3,2.3
		c0.4,1,1.4,1.7,3.4,1.7H29.7z"/>
	<path class="st0" d="M50.9,150.2h-2.7l-2.8-3.3H45h-4.6v3.3h-2.2v-8.5c0-2,0.9-2.8,2.8-2.8h4.7c2.7,0,4.2,1.2,4.2,3.8v0.6
		c0,1.7-0.7,2.9-2.1,3.4L50.9,150.2z M40.4,144.9h5c1.6,0,2.3-0.3,2.3-1.8v-0.7c0-1.5-0.7-1.8-2.3-1.8h-4.1c-0.8,0-0.9,0.1-0.9,0.9
		V144.9z"/>
	<path class="st0" d="M59.5,143.7l6.3,6.5H63l-5-5.1l-2.8,2.4v2.7H53v-11.4h2.2v6l7-6h2.9L59.5,143.7z"/>
	<path class="st0" d="M86.3,138.8c-0.1,0.3-0.4,1.3-0.9,3s-1,3.3-1.4,4.8c-0.5,1.5-0.7,2.3-0.7,2.4c-0.2,0.7-0.8,1.2-1.6,1.2h-1
		c-0.8,0-1.4-0.4-1.7-1.2l-2.1-7.7c0-0.4-0.5-0.4-0.5,0l-2.1,7.7c-0.3,0.8-0.9,1.2-1.7,1.2h-1c-0.8,0-1.4-0.5-1.6-1.2
		c0,0-0.2-0.8-0.7-2.4c-0.5-1.5-0.9-3.2-1.5-4.8c-0.5-1.7-0.8-2.7-0.9-3h2.2c0.1,0.3,0.3,0.8,0.5,1.5s0.5,1.5,0.7,2.3
		c0.7,2.4,1.5,5.2,1.6,5.2c0.1,0.2,0.1,0.3,0.2,0.3h0.2c0.1,0,0.1-0.1,0.2-0.3l2.1-7.6c0.2-0.9,0.9-1.4,2.1-1.4
		c1.1,0,1.8,0.4,2.1,1.4c1.2,4.5,1.9,7,2.1,7.6c0.1,0.2,0.1,0.3,0.2,0.3h0.2c0.1,0,0.1-0.1,0.2-0.3c0-0.1,0.4-1.3,0.8-2.8
		c0.2-0.8,0.5-1.6,0.7-2.4c0.2-0.8,0.5-1.6,0.7-2.3s0.4-1.2,0.5-1.5H86.3z"/>
	<path class="st0" d="M91.6,140.7c-0.9,0-1.1,0.1-1.1,1v1.7h8.8v1.9h-8.8v1.7c0,0.9,0.2,1,1.1,1h8.3v1.9H91c-1.8,0-2.7-0.7-2.7-2.7
		v-5.9c0-2.1,0.9-2.7,2.7-2.7h8.9v1.9h-8.3V140.7z"/>
	<path class="st0" d="M115.6,150.2h-2.3l-1.1-2.2h-7.3l-1.1,2.2h-2.3l4.8-10.3c0.4-0.9,1.1-1.1,2.3-1.1c0.6,0,0.8,0,1.2,0.2
		c0.4,0.1,0.8,0.4,1,0.9L115.6,150.2z M105.8,146h5.6l-2.4-5c-0.1-0.3-0.7-0.3-0.8,0L105.8,146z"/>
	<path class="st0" d="M130.2,150.2h-2.7l-2.8-3.3h-0.4h-4.6v3.3h-2.2v-8.5c0-2,0.9-2.8,2.8-2.8h4.7c2.7,0,4.2,1.2,4.2,3.8v0.6
		c0,1.7-0.7,2.9-2.1,3.4L130.2,150.2z M119.7,144.9h5c1.6,0,2.3-0.3,2.3-1.8v-0.7c0-1.5-0.7-1.8-2.3-1.8h-4.1
		c-0.8,0-0.9,0.1-0.9,0.9V144.9z"/>
	<path class="st0" d="M153.4,150.2H150l-1.4-1c-0.6,0.4-1.3,0.7-2.1,0.9s-1.8,0.3-3.1,0.3c-1.1,0-2.1-0.1-3.2-0.4
		c-1.6-0.5-3-1.5-3-3.3c0-2,2-2.9,3.8-3.2c-1.1-0.8-1.6-1.5-1.6-2.3c0-1.5,1.4-2.6,3.9-2.6c2.3,0,3.9,1.1,3.9,2.6
		c0,1.3-0.8,2.2-2.5,2.6l3.5,2.6c0-0.1,0-0.2,0-0.3c0-0.6-0.3-1.6-0.8-2.2h2.2c0.4,0.7,0.6,1.4,0.6,2.2c0,0.6-0.1,1.1-0.4,1.6
		L153.4,150.2z M146.8,147.8l-4.4-3.2c-1.4,0.2-3,0.9-3,2c0,0.7,0.7,1.2,1.6,1.5c0.9,0.2,1.7,0.3,2.4,0.3
		C144.9,148.4,146.1,148.2,146.8,147.8z M141.6,141.3c0.1,0.4,0.3,0.6,1.5,1.5c1.2-0.4,1.7-0.9,1.7-1.4s-0.5-0.9-1.6-0.9
		C142.2,140.5,141.6,140.8,141.6,141.3z"/>
	<path class="st0" d="M168.6,143.3c3.5,0,4.5,1.5,4.5,3.1c0,2.1-1.9,3.9-6.5,3.9c-3.7,0-5.9-1.2-6.4-3.7h2.3c0.3,0.8,1,1.8,4.2,1.8
		c3,0,4.3-0.8,4.3-1.9c0-0.8-0.8-1.2-2.3-1.2h-4c-2.9,0-4.3-1.1-4.3-2.9c0-2.3,2.1-3.8,6.2-3.8c1.9,0,3.4,0.4,4.4,1.1
		c1,0.7,1.5,1.4,1.8,2.3h-2.3c-0.5-1-1.8-1.5-3.9-1.5c-2.6,0-3.9,0.8-3.9,1.8c0,0.4,0.2,1,2.1,1L168.6,143.3L168.6,143.3z"/>
	<path class="st0" d="M188.8,150.2h-2.3l-1.1-2.2h-7.3l-1.1,2.2h-2.3l4.8-10.3c0.4-0.9,1.1-1.1,2.3-1.1c0.6,0,0.8,0,1.2,0.2
		c0.4,0.1,0.8,0.4,1,0.9L188.8,150.2z M179,146h5.6l-2.4-5c-0.1-0.3-0.7-0.3-0.8,0L179,146z"/>
	<path class="st0" d="M194,140.7c-0.9,0-1.1,0.1-1.1,1v1.7h8.4v1.9h-8.4v4.7h-2.2v-8.6c0-2,0.8-2.7,2.7-2.7h8.4v1.9H194V140.7z"/>
	<path class="st0" d="M207.5,140.7c-0.9,0-1.1,0.1-1.1,1v1.7h8.8v1.9h-8.8v1.7c0,0.9,0.2,1,1.1,1h8.3v1.9h-8.9
		c-1.8,0-2.7-0.7-2.7-2.7v-5.9c0-2.1,0.9-2.7,2.7-2.7h8.9v1.9h-8.3V140.7z"/>
	<path class="st0" d="M230.4,138.8v1.9h-5.3v9.4h-2.2v-9.4h-5.2v-1.9H230.4z"/>
	<path class="st0" d="M245.4,138.8l-5.8,6.6v4.8h-2.2v-4.8l-5.8-6.6h2.6l4.3,4.8l4.3-4.8H245.4z"/>
	<path class="st0" d="M254.9,138.8c2.6,0,4.2,1.1,4.2,3.8v0.6c0,2.5-1.5,3.8-4.2,3.8h-5.3v3.2h-2.2v-8.5c0-2.1,0.9-2.8,2.8-2.8h4.7
		L254.9,138.8L254.9,138.8z M254.6,145c1.8,0,2.3-0.4,2.3-1.8v-0.7c0-0.7-0.2-1.1-0.5-1.4c-0.3-0.3-0.9-0.4-1.8-0.4h-4.1
		c-0.8,0-0.9,0.1-0.9,0.9v3.4H254.6z"/>
	<path class="st0" d="M274.2,150.2h-2.7l-2.8-3.3h-0.4h-4.6v3.3h-2.2v-8.5c0-2,0.9-2.8,2.8-2.8h4.7c2.7,0,4.2,1.2,4.2,3.8v0.6
		c0,1.7-0.7,2.9-2.1,3.4L274.2,150.2z M263.7,144.9h5c1.6,0,2.3-0.3,2.3-1.8v-0.7c0-1.5-0.7-1.8-2.3-1.8h-4.1
		c-0.8,0-0.9,0.1-0.9,0.9V144.9z"/>
	<path class="st0" d="M283.3,138.6c1.9,0,3.4,0.5,4.2,1.2c0.4,0.4,0.8,0.8,1,1.4c0.5,1.1,0.7,2,0.7,3.3c0,1.2-0.1,2.2-0.7,3.3
		c-0.7,1.5-2.3,2.6-5.3,2.6h-1.5c-1.9,0-3.4-0.5-4.3-1.2c-0.4-0.4-0.7-0.8-1-1.4c-0.5-1.1-0.7-2.1-0.7-3.3s0.1-2.2,0.7-3.3
		c0.7-1.5,2.3-2.6,5.3-2.6H283.3z M283.3,148.4c1.3,0,2.3-0.3,2.8-0.8c0.3-0.2,0.5-0.5,0.6-0.9c0.3-0.8,0.3-1.3,0.3-2.3
		s0-1.5-0.3-2.3c-0.4-1.1-1.4-1.6-3.4-1.7h-1.5c-1.3,0-2.3,0.3-2.8,0.8c-0.2,0.2-0.4,0.5-0.6,0.9c-0.3,0.7-0.3,1.3-0.3,2.3
		s0,1.5,0.3,2.3c0.4,1,1.4,1.7,3.4,1.7H283.3z"/>
	<path class="st0" d="M297.8,138.8c2.1,0,3.6,0.3,4.5,0.9c1.5,0.9,1.9,2.4,2,4.8c0,2.2-0.4,3.6-1.5,4.5s-2.6,1.2-5,1.2h-6v-11.4
		H297.8z M297.8,148.2c1.5,0,2.5-0.2,3.1-0.5c1-0.6,1.2-1.5,1.2-3.2c0-2.7-0.6-3.7-4.3-3.7H294v7.5h3.8V148.2z"/>
	<path class="st0" d="M308.6,149.4c-1.4-1.1-1.7-2.6-1.7-4.9v-5.7h2.2v5.7c0,1.5,0.1,2.4,0.7,3.1c0.6,0.6,1.5,0.9,3.3,0.9
		s2.8-0.3,3.3-0.9c0.5-0.7,0.7-1.6,0.7-3.1v-5.7h2.2v5.7c0,1.6-0.2,2.6-0.7,3.6c-0.7,1.5-2.4,2.3-5.5,2.3
		C311,150.4,309.5,150,308.6,149.4z"/>
	<path class="st0" d="M335,146.1c-0.4,2.4-2.2,4.2-6.6,4.2c-5.2,0-6.7-2.3-6.7-5.9c0-3.5,1.3-5.9,6.7-5.9c3.8,0,6,1.2,6.6,4h-2.3
		c-0.4-1.5-1.6-2.1-4.3-2.1c-4.1,0-4.5,1.6-4.5,4c0,1.2,0.1,2.2,0.7,2.9c0.7,0.6,1.7,1,3.8,1c2.2,0,3.9-0.4,4.3-2.3h2.3V146.1z"/>
	<path class="st0" d="M349.3,138.8v1.9H344v9.4h-2.2v-9.4h-5.2v-1.9H349.3z"/>
	<path class="st0" d="M359.5,143.3c3.5,0,4.5,1.5,4.5,3.1c0,2.1-1.9,3.9-6.5,3.9c-3.7,0-5.9-1.2-6.4-3.7h2.3c0.3,0.8,1,1.8,4.2,1.8
		c3,0,4.3-0.8,4.3-1.9c0-0.8-0.8-1.2-2.3-1.2h-4c-2.9,0-4.3-1.1-4.3-2.9c0-2.3,2.1-3.8,6.2-3.8c1.9,0,3.4,0.4,4.4,1.1
		c1,0.7,1.5,1.4,1.8,2.3h-2.3c-0.5-1-1.8-1.5-3.9-1.5c-2.6,0-3.9,0.8-3.9,1.8c0,0.4,0.2,1,2.1,1L359.5,143.3L359.5,143.3z"/>
</g>
<g>
	<path d="M123.2,62.1c0,33.8-27.4,61.1-61.1,61.1S1,95.9,1,62.1S28.4,1,62.1,1C95.9,1,123.2,28.4,123.2,62.1"/>
	<path class="st0" d="M119.5,62.1c0,31.7-25.7,57.4-57.4,57.4S4.7,93.8,4.7,62.1S30.4,4.7,62.1,4.7S119.5,30.4,119.5,62.1"/>
	<path class="st1" d="M111.7,62.1c0,27.4-22.2,49.6-49.6,49.6S12.5,89.5,12.5,62.1s22.2-49.6,49.6-49.6S111.7,34.7,111.7,62.1"/>
	<path class="st0" d="M87,36.6c-0.3-0.1-0.5-0.1-0.9-0.2c0.2,0.5,0.3,0.9,0.4,1.3c0.2,0.4,0.4,0.8,0.5,1.3c0.3,1.1,0.5,2.2,0.7,3.3
		c0.3,1.4,0.6,2.8,0.8,4.1c0,0.2-0.1,0.5-0.1,0.7C88.2,47,88,47,87.8,47c-0.1,0-0.2,0-0.4,0.1c0.4,0.4,0.9,0.9,1.3,1.3
		c0.1,0.1,0.1,0.1,0.2,0.2c0.1,0.7,0.3,1.4,0.3,2.1c0,0.7,0.3,1.3,0.7,1.9c0.3,0.4,0.5,0.9,0.9,1.1c0.6,0.4,0.7,1,1,1.5
		c0.2,0.3,0.5,0.5,0.7,0.8c0.1,0.1,0.2,0.2,0.2,0.2c0,0.7,0.3,1.4,0.5,2c0,0.2-0.1,0.4-0.1,0.6c-0.2-0.1-0.3-0.3-0.5-0.4
		c-0.7-1.1-1.4-2.1-2.2-3.2c-1.5-2-3.2-3.6-5.1-5.2c-1.3-1.1-2.7-2.1-4.2-3.1c-1.2-0.8-2.4-1.5-3.6-2.2s-2.5-1.4-3.7-2
		c-0.9-0.5-1.9-0.8-2.9-1.2c-0.5-0.2-1-0.2-1.4-0.3c-1.1-0.1-2.1-0.3-3.2-0.4c-1.3-0.1-2.5-0.1-3.8-0.4c-2.4-0.4-4.8-0.2-7.2-0.3
		c-1.2,0-2.4,0-3.6,0.1c-1.5,0.1-3.1,0.3-4.6,0.5c-0.8,0.1-1.7,0.2-2.5,0.4c-0.6,0.1-1.2,0.3-1.9,0.5c-0.4,0.1-0.9,0.2-1.3,0.3
		c-0.9,0.3-1.7,0.6-2.6,0.9c-0.7,0.2-1.3,0.4-2,0.7c-0.5,0.2-1,0.4-1.5,0.7c-0.9,0.5-1.8,0.9-2.7,1.4c-0.2,0.1-0.5,0.3-0.7,0.4
		c-0.2,0.1-0.4,0-0.4-0.2c0-0.4-0.1-0.9-0.1-1.3c0-0.7,0.5-1,1-1.3c0.6-0.3,1.2-0.7,1.8-1c1-0.5,2-0.9,3-1.4
		c0.8-0.4,1.5-0.7,2.3-1.1c0.8-0.3,1.6-0.6,2.4-1c0.3-0.2,0.7-0.4,0.9-0.7c0.9-1.5,1.6-3,2.5-4.5c0.8-1.3,1.6-2.5,2.5-3.8
		c0.7-1,1.4-2.1,2.2-3c0.9-1.1,1.8-2.1,3-2.8c0.3-0.2,0.6-0.2,1-0.3c0.6-0.1,1.2-0.2,1.8-0.4c0.9-0.2,1.8-0.4,2.6-0.5
		c0.2,0,0.4,0,0.6-0.1c0.4-0.1,0.8-0.2,1.3-0.2c0.3,0,0.7-0.1,1-0.1c0.5-0.1,0.9-0.2,1.4-0.3c1.3-0.2,2.6-0.4,3.9-0.6
		c1.4-0.2,2.8-0.1,4.1,0.6c0.5,0.3,1.2,1,1.2,1.5c-0.4,0-0.7,0-1.1-0.1c-1.1-0.3-2.2-0.2-3.1,0.2c-0.6,0.2-1.2,0.8-1.4,1.5
		c-0.3,0.9-0.8,1.8-1.1,2.7c-0.3,0.7-0.4,1.5-0.7,2.3c-0.1,0.4-0.2,0.7-0.4,1.1c0.8,0.1,1.3-0.4,1.6-0.9c0.3-0.8,0.7-1.6,1.1-2.4
		c0.3-0.7,0.7-1.3,1-2c0.3-0.6,0.7-0.9,1.3-0.9c1.6,0.1,3.3,0.2,4.9,0.3c0.3,0,0.6,0.2,0.9,0.4c0.9,0.5,1.8,0.9,2.6,1.4
		c1.5,1,3.1,1.9,4.4,3.1c1,0.9,2.1,1.8,3,2.8c0.8,0.9,1.5,2,2.2,3C87.1,36.3,87,36.4,87,36.6"/>
	<path class="st0" d="M46.6,100.3c0.7,0.7,1.6,1.2,2.3,1.9c-0.1-0.1-0.2-0.2-0.2-0.2c-0.4-0.4-0.7-0.7,0,0c0.1,0.1,0.2,0.2,0.4,0.3
		c0.3,0.2,0.7,0.5,1,0.7c1.7,1.1,3.4,2.1,5.2,3.1c0.5,0.3,1.1,0.6,1.6,0.8c0.1,0,0.2,0.1,0.3,0.1c1.4-0.3,2.9-0.4,4.3-0.8
		c1.9-0.4,3.7-1,5.6-1.7c0.1-0.1,0.3-0.1,0.4-0.2c0,0,0.1,0,0.1-0.1c0.4-0.2,0.8-0.4,1.3-0.6c0.8-0.4,1.7-0.8,2.5-1.2
		c0.1-0.1,0.3-0.1,0.4-0.2c0.1-0.2,0.1-0.4,0.2-0.7c0.2-0.6,0.4-1.2,0.5-1.8c0.2-0.5,0.3-1,0.5-1.5c0.4-1.2,0.9-2.3,1.3-3.5
		c0.3-0.8,0.6-1.7,0.9-2.5c0-0.2,0-0.3,0-0.6c-0.3,0.2-0.4,0.3-0.5,0.5c-1.4,1.5-2.7,3.1-4.1,4.6c-1,1.2-2.1,2.3-3.1,3.5
		c-0.4,0.4-0.7,0.9-1.4,0.7c-0.5-0.2-1-0.2-1.5-0.3c-0.1,0-0.3,0-0.4-0.1c-0.8-0.2-1.5-0.3-2.3-0.5c-0.5-0.1-1.1-0.2-1.6-0.3
		c-0.1,0-0.2-0.2-0.2-0.3c0-0.1,0.1-0.2,0.2-0.2c0.2-0.1,0.4-0.1,0.5-0.1c1-0.4,2-0.7,3-1.1c0.5-0.2,1.1-0.3,1.4-0.9
		c0.2-0.3,0.4-0.7,0.6-1c1-1.6,2-3.2,3-4.7c0.2-0.3,0.6-0.7,0.5-1c0-0.3-0.5-0.6-0.8-0.8c-0.2-0.1-0.5-0.2-0.7-0.1
		c-0.8,0.4-1.6,0.8-2.4,1.2c-1.4,0.8-2.8,1.5-4.2,2.3c-1.2,0.7-2.5,1.3-3.7,1.9C57.3,95,57.1,95,56.9,95c-0.3,0-0.6-0.1-0.9-0.2
		c-1-0.1-2-0.2-3-0.4c-0.4-0.1-0.8-0.3-1.2-0.5c-0.6-0.4-1.2-0.8-1.7-1.3c-1-0.9-2-1.9-3-2.9c-0.5-0.5-0.9-1-1.4-1.6
		c-0.1,0.4-0.3,0.6-0.3,0.8c-0.1,0.3,0,0.6-0.1,0.8c-0.3,1.1-0.5,2.2-0.8,3.3c-0.2,1.1-0.4,2.2-0.6,3.3c-0.1,0.2-0.2,0.5-0.4,0.7
		C44.3,98.2,45.4,99.3,46.6,100.3"/>
	<path class="st0" d="M43.5,56.2c0.4,0.6-0.2,1.1-0.2,1.6c1-0.3,1.9-0.6,2.8-0.8c0.8-0.2,1.6-0.3,2.4-0.6c0.3-0.1,0.6-0.4,0.7-0.7
		c0.4-0.7,1-1,1.8-1.1c0.6-0.1,0.9-0.5,1.2-1c0.4-0.7,0.8-1.4,1.3-2.1c0.2-0.3,0.5-0.6,0.7-0.6c0.7-0.1,1.4-0.1,2-0.1
		c0.2,0,0.4,0.3,0.4,0.6c0,1.2-0.2,2.4-0.5,3.5c-0.4,1.4-0.8,2.8-0.9,4.3c0,0.1,0.2,0.4,0.2,0.4c0.9-0.2,1.3,0.4,1.7,1
		s0.4,0.6-0.1,1.1c-0.9,0.8-0.9,0.8-2,0.2c-0.5-0.3-1.1-0.4-1.6-0.5c-1.5-0.1-3,0-4.5,0c-0.4,0-0.7,0.2-0.8,0.5
		c-0.4,0.7-0.1,2,0.6,2.3c1.1,0.6,2.1,1.4,2.8,2.6c0.1-0.5,0.2-0.9,0.4-1.2c0-0.1,0-0.2,0.1-0.3c0.3-0.3,1.4-0.3,1.7,0
		c0.5,0.5,1.1,1,1.6,1.5c0.1,0.1,0.2,0.3,0.2,0.4c-0.1,0-0.3,0.1-0.4,0.1c-0.2,0-0.4,0-0.6,0c-0.6-0.1-1.2,0.1-1.7,0.5
		c-0.2,0.1-0.4,0.3-0.7,0.4c-0.1,0.1-0.3,0.1-0.5,0c-0.4-0.1-0.8-0.3-1.2-0.4c-0.3,0-0.7,0.1-0.9,0.3c-0.5,0.7-1,1.4-1.5,2.1
		c-0.7,1-1.4,2-2,3c0.1,0,0.1,0.1,0.2,0.1c0.6-0.1,1.3-0.1,1.9-0.3c0.2-0.1,0.4-0.4,0.5-0.7c0.5-0.7,1-1.4,1.7-2
		c0.4-0.4,0.8-0.3,1.2-0.1c0.4,0.2,0.8,0.2,1.2,0s0.8-0.3,1.3-0.4c0.6-0.2,1,0.2,1.5,0.4c0.9,0.3,1.7,0.7,2.5,1.1
		c0.2,0.1,0.5,0.2,0.8,0.3c0.3,0.2,0.5,0.4,0.3,0.8c-0.3,0.5-0.5,0.9-0.9,1.3c-0.2,0.2-0.5,0.4-0.8,0.5c-0.7,0.2-1.5,0.3-2.2,0.3
		c-1.7,0.1-3.4,0.2-5.1,0.2c-0.2,0-0.3,0-0.5,0c-0.3,0-0.7-0.2-0.9,0.3c-0.1,0.3,0.4,0.9,0.7,1c1,0.4,2.1,0.8,3.1,1.1
		c0.1,0,0.2,0.1,0.3,0.1c0.9,0.1,1.9,0.2,2.8,0.3c1.1,0.2,2.2,0.6,2.9,1.5c0.3,0.3,0.5,0.8,0.5,1.2c0.1,1.2-0.1,2.3-0.6,3.3
		c-0.1,0.1-0.4,0.3-0.6,0.3c-2.4,0-4.8-0.1-7.2,0c-0.4,0-0.9,0.4-1.3,0.7c-0.5,0.3-0.9,0.8-1.3,1.1c-0.2,0.1-0.4,0.3-0.6,0.3
		c-0.8-0.1-1.6-0.1-2.3-0.4c-0.4-0.2-0.7-0.7-1-1.2c-0.5-0.8-0.8-1.7-1-2.6c-0.2-1.3-0.6-2.6-0.9-3.9c-0.2-1-0.6-2-0.8-3
		c-0.1-0.6-0.2-1.2-0.4-1.8c-0.1-0.4-0.2-0.8-0.3-1.2c-0.1-0.8-0.2-1.5-0.2-2.3c0-1.1-0.2-2.1,0-3.2c0.3-2,0.1-4,0.2-6
		c0.1-1,0.2-2.1,0.3-3.1c0.1-0.5,0.6-0.4,0.9-0.6C42.5,56.4,43,56.3,43.5,56.2"/>
	<path class="st0" d="M65.2,67.8c-0.4-0.1-0.9-0.2-1.3-0.2c-0.6,0-0.9-0.5-1.3-0.9c-0.3-0.3-0.4-0.7-0.7-1c-0.6-0.5-0.7-1.2-0.8-1.9
		c-0.1-0.8-0.3-1.6-0.5-2.4c-0.1-0.5-0.2-1-0.3-1.5c-0.1-0.7-0.2-1.5-0.4-2.2c-0.1-0.7-0.3-1.5-0.5-2.2c0-0.2,0-0.4-0.1-0.7
		c1.2,0.4,2.1,1.3,3.3,1.8c0-0.3,0-0.5,0-0.7c0-0.4,0.2-0.6,0.6-0.6c1.3,0,2.5,0.2,3.7,0.5c0.6,0.1,1.1,0.2,1.7,0.4s1.2,0.3,1.7,0.8
		c0.2,0.3,0.5,0.4,0.8,0.7c0.4,0.5,0.7,0.1,1-0.1c0.3-0.2,0.7-0.4,0.5-1c-0.2-0.7-0.3-1.4-0.4-2.1c0.1,0,0.1-0.1,0.2-0.1
		c0.2,0.1,0.4,0.2,0.6,0.4c0.6,0.4,1.2,0.7,1.8,1.2c0.2,0.2,0.3,0.5,0.4,0.7c0.2,1,0.2,2,0.4,2.9c0.2,1,0.4,1.9,0.6,2.9
		c0.1,0.4-0.1,0.8-0.2,1.3c-0.1,0.4-0.3,0.7-0.4,1c-0.1,0.4-0.3,0.5-0.6,0.6c-1.3,0.6-2.7,1.3-4,1.9c-0.3,0.2-0.6,0.4-1,0.6
		c0.7,0.5,1.4,1,2,1.4c0.7,0.5,1.5,1.1,2.2,1.6c0.3,0.2,0.2,0.6-0.3,0.8c-1.2,0.5-2.4,1-3.5,1.6c-0.9,0.4-1.8,0.9-2.7,1.4
		c-1.1,0.5-2.2,1.1-3.2,1.6c-0.2,0.1-0.4,0.3-0.6,0.4c-0.1,0.1-0.3,0.1-0.4,0c-0.1,0-0.1-0.3-0.1-0.4c0.1-0.5,0.3-1,0.5-1.6
		c0.2-0.6,0.2-1.3,0.4-1.9c0.1-0.7,0.3-1.3,0.5-1.9c0.1-0.5,0.2-0.9,0.3-1.4C65.1,68.8,65.2,68.3,65.2,67.8"/>
	<path class="st0" d="M82.8,74.5c0.4-0.5,0.9-1,1.2-1.6c0.4-0.7,0.1-1.5-0.1-2.2c-0.3-1.1,0-1.3,0.8-1.2c0.3,0,0.6,0,0.9,0
		c0.4,0,0.6-0.2,0.6-0.6c0.1-0.7-0.2-1.3-0.7-1.7c-0.2-0.2-0.8-0.1-1.1-0.1c-0.1,0-0.3,0.1-0.4,0.2c-0.3-0.2-0.6-0.4-0.2-0.8
		c0.1-0.1,0.1-0.2,0.1-0.3c0-0.4,0.3-0.6,0.6-0.7c0.6-0.1,1.3-0.1,1.9-0.1c0.4,0,0.6,0.3,0.8,0.6c0.3,0.7,0.7,1.4,1,2.1
		c0.2,0.5,0.6,0.9,0.3,1.5c-0.3,0.5-0.3,1.1-0.4,1.7c-0.1,0.5-0.3,0.9-0.4,1.4c-0.1,0.4-0.3,0.8-0.4,1.2c-0.2,0.8-0.7,1.5-1.3,2.1
		c-0.6,0.7-1.2,1.4-1.9,2c-0.7,0.5-1.4,1-2.2,1.3c-0.8,0.4-1.5,0-2.1-0.6c-0.5-0.5-0.8-1.1-0.6-1.8c0.2-0.5,0.5-1,0.9-1.3
		c0.6-0.6,1.4-1,2.1-1.5c0.1-0.1,0.4,0,0.7,0.1C82.8,74.4,82.8,74.5,82.8,74.5"/>
	<g>
		<path class="st0" d="M187,56.1c8.5,0,11.1-2,11.1-8.5V44c0-3.2-0.8-5.4-2.3-6.6c-1.5-1.3-4.4-1.9-8.8-1.9h-19.6
			c-3.7,0-4.5,0.3-4.5,4.1v16.5H187z M188.4,26.3c12.4,0,20.1,5.4,20.1,18v3.1c0,12.2-7.3,18-20.1,18H163v15.3h-10.4V39.8
			c0-10,4.3-13.5,13.5-13.5H188.4z"/>
	</g>
	<path class="st0" d="M257.2,71.4c7.2,0,8.8-2.8,8.8-6.9s-1.8-6.5-7.9-6.5h-29.2v13.4H257.2z M228.9,35.5v13.4h25.8
		c5.6,0,7.9-2,7.9-6.6c0-4.5-1.6-6.8-8.7-6.8C253.9,35.5,228.9,35.5,228.9,35.5z M257.8,80.7h-39.2V26.3h36.1
		c12.5,0,18.8,5.2,18.8,15.6c0,5.1-3.4,9.6-6.6,10.5c3.7,0.2,10,4,10,12.8C276.7,75,270,80.7,257.8,80.7"/>
	<g>
		<path class="st0" d="M356.5,26.3c5,0,7.6,2.9,7.6,8.6v45.9h-10.4V41.1c0-1.1-0.3-1.6-0.9-1.6h-1c-1.1,0-1.6,1.4-3,4.5l-13.3,29.9
			c-2.1,4.8-4.2,6.1-8.6,6.1h-2.3c-4.4,0-6.5-1.4-8.6-6.1L302.7,44c-1.4-3.4-2-4.5-3-4.5h-1c-0.6,0-0.9,0.5-0.9,1.6v39.7h-10.4v-46
			c0-5.7,2.6-8.6,7.6-8.6h4.8c4.3,0,6.8,3.4,9.1,8.4L324.1,69c0.8,1.4,0.7,1.4,1.2,1.4h0.9c0.4,0,0.6,0,1.2-1.4l15.2-34.3
			c2.4-5.4,5-8.4,9.1-8.4C351.7,26.3,356.5,26.3,356.5,26.3z"/>
	</g>
</g>
<g>
	<g>
		<g>
			<path class="st0" d="M225.7,95.7c0-0.8-0.2-1.3-0.5-1.5c-0.4-0.3-1-0.4-1.9-0.4h-2c-0.9,0-1.1,0.2-1.1,1.1v4h3.1
				c0.9,0,1.5-0.1,1.9-0.4s0.5-0.8,0.5-1.5V95.7z M223.5,92.4c2.5,0,3.7,0.9,3.7,3.2V97c0,2.3-1.2,3.2-3.7,3.2h-3.3v2.8h-1.5v-8.3
				c0-1.7,0.8-2.4,2.5-2.4h2.3V92.4z"/>
		</g>
		<path class="st0" d="M249.9,97.5v-0.7v-0.3h-3.7c-1.3,0-2,0.2-2,1.1s0.5,1.2,2,1.2h2.7c0.5,0,0.7-0.1,0.8-0.2s0.2-0.4,0.2-0.8
			V97.5z M251.4,96.5V98c0,1.7-0.9,2.4-2.4,2.4h-2.3c-0.9,0-1.6-0.1-2.3-0.3c-1-0.4-1.7-1-1.7-2.4c0-0.8,0.4-1.4,0.9-1.8
			c0.3-0.2,0.6-0.3,0.9-0.4c0.8-0.2,1.4-0.3,2.2-0.3h3.1c-0.3-0.9-1-1.5-3-1.5c-1.2,0-2.3,0.2-3.2,0.7v-1.5c0.9-0.4,2-0.6,3.2-0.6
			C250.1,92.3,251.4,93.7,251.4,96.5"/>
		<g>
			<path class="st0" d="M267.4,100.3v-5.4c0-1.5,1-2.5,2.6-2.5h2.7v1.4H270c-0.7,0-1.1,0.3-1.1,1v5.5H267.4z"/>
		</g>
		<g>
			<path class="st0" d="M294.4,98.9v1.4h-1.6c-2.6,0-3.8-0.9-3.8-3.3v-3.3h-1.6v-1.3h1.6v-2.8h1.5v2.8h3.4v1.3h-3.4v3.4
				c0,1.5,0.5,1.8,2.3,1.8H294.4z"/>
		</g>
		<path class="st0" d="M311.6,94.3c-0.4,0.5-0.5,1-0.5,2.2v3.8h-1.5v-3.8c0-1.5,0.3-2.5,0.9-3.2s1.7-1,3.3-1c3.2,0,4.2,1.3,4.2,4.2
			v3.8h-1.5v-3.8c0-1.2-0.1-1.7-0.5-2.2s-1-0.6-2.2-0.6S312,93.8,311.6,94.3"/>
		<path class="st0" d="M335.2,95.7h5.9c-0.1-1.3-0.9-2-3-2C335.8,93.7,335.2,94.5,335.2,95.7 M342.6,98c-0.5,1.6-2,2.4-4.4,2.4
			c-3.3,0-4.5-1.3-4.5-4.1c0-2.5,1-4.1,4.5-4.1c3.7,0,4.5,1.8,4.5,4.1V97h-7.5c0.1,1.2,0.6,2,3,2c1.5,0,2.4-0.3,2.8-1H342.6z"/>
		<g>
			<path class="st0" d="M358.2,100.3v-5.4c0-1.5,1-2.5,2.6-2.5h2.7v1.4h-2.6c-0.7,0-1.1,0.3-1.1,1v5.5H358.2z"/>
		</g>
	</g>
</g>
</svg>
